<mxfile host="app.diagrams.net" modified="2023-10-07T14:28:34.460Z" agent="Mozilla/5.0 (Windows NT 10.0; Win64; x64) AppleWebKit/537.36 (KHTML, like Gecko) Chrome/117.0.0.0 Safari/537.36" etag="1UZu5rOX-DL34-SxCR0N" version="22.0.4" type="device">
  <diagram id="C5RBs43oDa-KdzZeNtuy" name="Page-1">
    <mxGraphModel dx="1434" dy="750" grid="1" gridSize="10" guides="1" tooltips="1" connect="1" arrows="1" fold="1" page="1" pageScale="1" pageWidth="827" pageHeight="1169" math="0" shadow="0">
      <root>
        <mxCell id="WIyWlLk6GJQsqaUBKTNV-0" />
        <mxCell id="WIyWlLk6GJQsqaUBKTNV-1" parent="WIyWlLk6GJQsqaUBKTNV-0" />
        <mxCell id="KG_osiVOT5841G34k3Lr-22" value="" style="rounded=0;whiteSpace=wrap;html=1;fillColor=#ffcc99;opacity=30;strokeColor=#36393d;" vertex="1" parent="WIyWlLk6GJQsqaUBKTNV-1">
          <mxGeometry x="130" y="260" width="420" height="230" as="geometry" />
        </mxCell>
        <mxCell id="KG_osiVOT5841G34k3Lr-0" value="&lt;font style=&quot;&quot; face=&quot;Lucida Console&quot;&gt;data.stortinget.no&lt;/font&gt;" style="ellipse;shape=cloud;whiteSpace=wrap;html=1;fillColor=#dae8fc;strokeColor=#6c8ebf;" vertex="1" parent="WIyWlLk6GJQsqaUBKTNV-1">
          <mxGeometry x="100" y="100" width="200" height="90" as="geometry" />
        </mxCell>
        <mxCell id="KG_osiVOT5841G34k3Lr-1" value="" style="endArrow=classic;html=1;rounded=0;exitX=0.55;exitY=0.95;exitDx=0;exitDy=0;exitPerimeter=0;entryX=0.5;entryY=0;entryDx=0;entryDy=0;" edge="1" parent="WIyWlLk6GJQsqaUBKTNV-1" source="KG_osiVOT5841G34k3Lr-0" target="KG_osiVOT5841G34k3Lr-3">
          <mxGeometry width="50" height="50" relative="1" as="geometry">
            <mxPoint x="420" y="460" as="sourcePoint" />
            <mxPoint x="210" y="300" as="targetPoint" />
          </mxGeometry>
        </mxCell>
        <mxCell id="KG_osiVOT5841G34k3Lr-18" style="edgeStyle=orthogonalEdgeStyle;rounded=0;orthogonalLoop=1;jettySize=auto;html=1;exitX=1;exitY=0.75;exitDx=0;exitDy=0;entryX=0;entryY=0.75;entryDx=0;entryDy=0;" edge="1" parent="WIyWlLk6GJQsqaUBKTNV-1" source="KG_osiVOT5841G34k3Lr-3" target="KG_osiVOT5841G34k3Lr-15">
          <mxGeometry relative="1" as="geometry" />
        </mxCell>
        <mxCell id="KG_osiVOT5841G34k3Lr-3" value="Backend&lt;br&gt;(Node.js)" style="rounded=0;whiteSpace=wrap;html=1;fillColor=#fff2cc;strokeColor=#d6b656;" vertex="1" parent="WIyWlLk6GJQsqaUBKTNV-1">
          <mxGeometry x="155" y="280" width="110" height="40" as="geometry" />
        </mxCell>
        <mxCell id="KG_osiVOT5841G34k3Lr-14" style="edgeStyle=orthogonalEdgeStyle;rounded=0;orthogonalLoop=1;jettySize=auto;html=1;exitX=0.855;exitY=0;exitDx=0;exitDy=4.35;exitPerimeter=0;entryX=0.75;entryY=1;entryDx=0;entryDy=0;" edge="1" parent="WIyWlLk6GJQsqaUBKTNV-1" source="KG_osiVOT5841G34k3Lr-5" target="KG_osiVOT5841G34k3Lr-3">
          <mxGeometry relative="1" as="geometry" />
        </mxCell>
        <mxCell id="KG_osiVOT5841G34k3Lr-5" value="&lt;b&gt;MongoDB&lt;/b&gt;" style="shape=cylinder3;whiteSpace=wrap;html=1;boundedLbl=1;backgroundOutline=1;size=15;fillColor=#d5e8d4;strokeColor=#82b366;" vertex="1" parent="WIyWlLk6GJQsqaUBKTNV-1">
          <mxGeometry x="170" y="370" width="80" height="100" as="geometry" />
        </mxCell>
        <mxCell id="KG_osiVOT5841G34k3Lr-13" style="edgeStyle=orthogonalEdgeStyle;rounded=0;orthogonalLoop=1;jettySize=auto;html=1;exitX=0.25;exitY=1;exitDx=0;exitDy=0;entryX=0.145;entryY=0;entryDx=0;entryDy=4.35;entryPerimeter=0;" edge="1" parent="WIyWlLk6GJQsqaUBKTNV-1" source="KG_osiVOT5841G34k3Lr-3" target="KG_osiVOT5841G34k3Lr-5">
          <mxGeometry relative="1" as="geometry" />
        </mxCell>
        <mxCell id="KG_osiVOT5841G34k3Lr-17" style="edgeStyle=orthogonalEdgeStyle;rounded=0;orthogonalLoop=1;jettySize=auto;html=1;exitX=0;exitY=0.25;exitDx=0;exitDy=0;entryX=1;entryY=0.25;entryDx=0;entryDy=0;" edge="1" parent="WIyWlLk6GJQsqaUBKTNV-1" source="KG_osiVOT5841G34k3Lr-15" target="KG_osiVOT5841G34k3Lr-3">
          <mxGeometry relative="1" as="geometry" />
        </mxCell>
        <mxCell id="KG_osiVOT5841G34k3Lr-21" style="edgeStyle=orthogonalEdgeStyle;rounded=0;orthogonalLoop=1;jettySize=auto;html=1;exitX=0.75;exitY=0;exitDx=0;exitDy=0;entryX=0.75;entryY=1;entryDx=0;entryDy=0;" edge="1" parent="WIyWlLk6GJQsqaUBKTNV-1" source="KG_osiVOT5841G34k3Lr-15" target="KG_osiVOT5841G34k3Lr-19">
          <mxGeometry relative="1" as="geometry" />
        </mxCell>
        <mxCell id="KG_osiVOT5841G34k3Lr-15" value="Frontend &lt;br&gt;(React)" style="rounded=0;whiteSpace=wrap;html=1;fillColor=#d0cee2;strokeColor=#56517e;" vertex="1" parent="WIyWlLk6GJQsqaUBKTNV-1">
          <mxGeometry x="400" y="280" width="120" height="40" as="geometry" />
        </mxCell>
        <mxCell id="KG_osiVOT5841G34k3Lr-20" style="edgeStyle=orthogonalEdgeStyle;rounded=0;orthogonalLoop=1;jettySize=auto;html=1;exitX=0.25;exitY=1;exitDx=0;exitDy=0;entryX=0.25;entryY=0;entryDx=0;entryDy=0;" edge="1" parent="WIyWlLk6GJQsqaUBKTNV-1" source="KG_osiVOT5841G34k3Lr-19" target="KG_osiVOT5841G34k3Lr-15">
          <mxGeometry relative="1" as="geometry" />
        </mxCell>
        <mxCell id="KG_osiVOT5841G34k3Lr-19" value="Client" style="rounded=1;whiteSpace=wrap;html=1;fillColor=#ffcc99;strokeColor=#36393d;" vertex="1" parent="WIyWlLk6GJQsqaUBKTNV-1">
          <mxGeometry x="400" y="115" width="120" height="60" as="geometry" />
        </mxCell>
      </root>
    </mxGraphModel>
  </diagram>
</mxfile>
